<?xml version="1.0" encoding="UTF-8" standalone="no"?>
<!-- Created with Inkscape (http://www.inkscape.org/) -->

<svg
   width="82.396919mm"
   height="24.40279mm"
   viewBox="0 0 82.396919 24.40279"
   version="1.1"
   id="svg1"
   xmlns:xlink="http://www.w3.org/1999/xlink"
   xmlns="http://www.w3.org/2000/svg"
   xmlns:svg="http://www.w3.org/2000/svg">
  <defs
     id="defs1">
    <linearGradient
       xlink:href="#linearGradient1"
       id="linearGradient2"
       x1="78.184372"
       y1="141.55208"
       x2="40.084373"
       y2="67.46875"
       gradientUnits="userSpaceOnUse"
       gradientTransform="matrix(0.19523248,0,0,0.19523248,-0.45746801,-7.895605)" />
    <linearGradient
       id="linearGradient1">
      <stop
         style="stop-color:#007e9a;stop-opacity:1;"
         offset="0"
         id="stop1" />
      <stop
         style="stop-color:#00ccff;stop-opacity:1;"
         offset="0.15267913"
         id="stop4" />
      <stop
         style="stop-color:#007a99;stop-opacity:1;"
         offset="0.5021385"
         id="stop5" />
      <stop
         style="stop-color:#00ccff;stop-opacity:1;"
         offset="0.85793257"
         id="stop3" />
      <stop
         style="stop-color:#007a99;stop-opacity:1;"
         offset="1"
         id="stop2" />
    </linearGradient>
  </defs>
  <g
     id="layer1"
     transform="translate(-0.30153798,-0.29762694)">
    <path
       id="rect1"
       style="font-variation-settings:'SCAN' -20;fill:#0d1117;stroke-width:0.4"
       d="M 0.30153799,0.29762694 H 82.698457 V 24.700419 H 0.30153799 Z" />
    <path
       id="path4"
       style="font-variation-settings:'wdth' 99.8, 'wght' 385;fill:#1a232d;fill-opacity:1;stroke-width:1;stroke-miterlimit:10;paint-order:stroke fill markers"
       d="M 82.427422,7.4872766 C 76.408758,22.302748 48.69655,24.440455 48.69655,24.440455 l 33.819475,0.01385 z" />
    <path
       id="rect2"
       style="display:inline;fill:#004455;stroke-width:0.7;stroke-linejoin:round;stroke-miterlimit:5;paint-order:stroke fill markers"
       d="m 7.6517649,5.4774437 h 6.8053501 c 0,0 0,0 0,0 v 0.8185129 c 0,0 0,0 0,0 H 7.6517649 c 0,0 0,0 0,0 z" />
    <path
       id="rect2-1"
       style="display:inline;fill:#004455;stroke-width:0.7;stroke-linejoin:round;stroke-miterlimit:5;paint-order:stroke fill markers"
       d="m 7.6517649,7.4959507 h 6.8053501 c 0,0 0,0 0,0 v 0.8185129 c 0,0 0,0 0,0 H 7.6517649 c 0,0 0,0 0,0 z" />
    <path
       id="rect2-15"
       style="display:inline;fill:#004455;stroke-width:0.7;stroke-linejoin:round;stroke-miterlimit:5;paint-order:stroke fill markers"
       d="m 7.6526957,16.689795 h 6.8053493 c 0,0 0,0 0,0 v 0.818512 c 0,0 0,0 0,0 H 7.6526957 c 0,0 0,0 0,0 z" />
    <path
       id="rect2-1-7"
       style="display:inline;fill:#004455;stroke-width:0.7;stroke-linejoin:round;stroke-miterlimit:5;paint-order:stroke fill markers"
       d="m 7.6526957,18.708303 h 6.8053493 c 0,0 0,0 0,0 v 0.818513 c 0,0 0,0 0,0 H 7.6526957 c 0,0 0,0 0,0 z" />
    <path
       style="display:inline;fill:#00aa88;fill-opacity:1;stroke-width:0.0390088"
       d="m 11.667822,9.732885 c 0,0 -0.14638,0.23765 0.0407,0.44288 0.18704,0.20523 1.60126,1.57343 1.60126,1.57343 0,0 0.14142,0.0958 0.37408,0 0.23266,-0.0958 -1.87954,-2.01581 -1.87954,-2.01581 z"
       id="path1-6" />
    <path
       style="display:inline;fill:#00aa88;fill-opacity:1;stroke-width:0.0390465"
       d="m 10.435942,15.271375 c 0,0 0.14651,-0.23792 -0.0407,-0.44338 -0.18719,-0.20546 -1.6025699,-1.57518 -1.6025699,-1.57518 0,0 -0.1415301,-0.0959 -0.3743801,0 -0.23285,0.0959 1.88107,2.01806 1.88107,2.01806 z"
       id="path1" />
    <path
       id="path11"
       style="display:inline;fill:#00aa88;fill-opacity:1;stroke-width:0.0516552"
       d="m 13.447792,3.789375 -0.082,0.082 c 0.18144,1.35237 0.0611,2.33125 0.005,2.79352 -0.10727,0.61512 -0.7369,1.64954 -0.7369,1.64954 -0.0718,0.12343 -0.42211,0.69076 -0.96631,1.41991 l 2.01506,2.01516 0.64589,-0.63762 c 1.7959,-1.77303 2.85191,-3.59026 1.06741,-5.37477 z m -5.02721,9.46654 -0.64025,0.63206 c -1.7959,1.77303 -2.8519103,3.59027 -1.0674,5.37478 l 1.94766,1.94776 0.082,-0.0821 c -0.1814401,-1.35238 -0.0611,-2.33115 -0.005,-2.79342 0.10727,-0.61512 0.7369,-1.64964 0.7369,-1.64964 0.0716,-0.12308 0.42007,-0.6875 0.96157,-1.41356 z" />
    <path
       id="path12"
       style="display:inline;fill:#00ffcc;fill-opacity:1;stroke-width:0.0516552"
       d="m 13.447882,3.789485 -0.0821,0.0819 c 0.96715,1.65253 0.64298,3.71815 -0.65245,5.10559 -0.0209,0.0185 -0.0387,0.0366 -0.06,0.0547 l -0.65245,0.6928 c -0.11874,0.14712 -0.13781,0.2317 -0.0375,0.3064 l 1.72117,1.72117 0.64347,-0.64004 c 1.78929,-1.77971 2.85191,-3.59037 1.06741,-5.37487 z m -5.02972,9.46411 -0.63783,0.63438 c -1.78926,1.77971 -2.8519103,3.59027 -1.0674,5.37478 l 1.94766,1.94776 0.082,-0.0821 c -0.9671501,-1.65254 -0.6429801,-3.71805 0.65245,-5.1055 0.0209,-0.0185 0.0419,-0.0366 0.0631,-0.0547 l 0.77667,-0.76241 c 0.0366,-0.0553 0.0281,-0.10579 0.009,-0.1445 z" />
    <path
       id="rect5"
       style="display:inline;fill:#006680;fill-opacity:1;stroke-width:0.0516552"
       d="m 8.7438421,3.886565 c -0.1814301,1.35238 -0.0611,2.33124 -0.005,2.79351 0.1072799,0.61512 0.7369399,1.64951 0.7369399,1.64951 0.12653,0.2174 1.09402,1.79274 2.52099,3.25208 l -2.25547,1.48058 -1.96019,-1.93523 C 5.985202,9.353985 4.9291517,7.536735 6.713662,5.752235 l 1.94771,-1.94771 z m 5.5853799,10.01655 c 1.7959,1.77303 2.85196,3.59028 1.06746,5.37478 l -1.94772,1.94772 -0.082,-0.082 c 0.18144,-1.35238 0.0611,-2.33124 0.005,-2.79352 -0.10727,-0.61511 -0.73687,-1.64957 -0.73687,-1.64957 -0.12653,-0.21741 -1.09409,-1.79268 -2.52106,-3.25201 l 2.25547,-1.48058 z" />
    <path
       id="path7"
       style="display:inline;fill:url(#linearGradient2);fill-opacity:1;stroke-width:0.0516552"
       d="m 8.7438421,3.886565 c -0.9671401,1.65254 -0.6430301,3.71809 0.6523999,5.10555 0.0209,0.0185 0.0419,0.0367 0.0631,0.0547 l 2.53576,2.53576 5.9e-4,-5.8e-4 2.33351,2.32109 c 1.78928,1.77971 2.85196,3.59028 1.06746,5.37478 l -1.94772,1.94772 -0.082,-0.082 c 0.96715,-1.65254 0.64304,-3.7181 -0.65239,-5.10555 -0.0209,-0.0185 -0.0419,-0.0367 -0.0631,-0.0547 l -2.53576,-2.53576 -5.9e-4,5.8e-4 -2.33358,-2.32103 c -1.78928,-1.7797 -2.8519603,-3.59027 -1.06745,-5.37478 l 1.9477,-1.9477 z" />
    <path
       style="font-size:11.2889px;font-family:Fredoka;-inkscape-font-specification:'Fredoka, @wght=449,wdth=99.8';font-variation-settings:'wdth' 99.8, 'wght' 449;fill:#ffffff;stroke-miterlimit:10;paint-order:stroke fill markers"
       d="m 22.90417,16.325541 q -0.270933,0 -0.395111,-0.07902 -0.124177,-0.07902 -0.158044,-0.214489 -0.03387,-0.135467 -0.03387,-0.3048 V 9.0329188 q 0,-0.3386666 0.135467,-0.4628444 0.135467,-0.1241778 0.485422,-0.1241778 h 4.459111 q 0.169334,0 0.3048,0.033867 0.135467,0.033867 0.2032,0.1693333 0.07902,0.1241778 0.07902,0.3951111 0,0.2709334 -0.07902,0.3951111 -0.07902,0.1241778 -0.214489,0.1580445 -0.135466,0.033867 -0.3048,0.033867 h -3.883377 v 2.1223114 h 2.686755 q 0.169334,0 0.293511,0.04516 0.124178,0.03387 0.191911,0.146755 0.06773,0.112889 0.06773,0.361245 0,0.237066 -0.06773,0.361244 -0.06773,0.112889 -0.2032,0.146756 -0.124177,0.02258 -0.3048,0.02258 h -2.664177 v 2.291645 h 3.894666 q 0.169334,0 0.3048,0.04515 0.135467,0.03387 0.2032,0.158045 0.07902,0.124178 0.07902,0.4064 0,0.259644 -0.07902,0.395111 -0.07902,0.124178 -0.214489,0.158044 -0.135466,0.03387 -0.3048,0.03387 z m 7.975388,0.02258 q -0.2032,0 -0.349955,-0.06773 -0.135467,-0.06773 -0.214489,-0.225778 l -2.065867,-4.436534 q -0.146755,-0.293511 -0.07902,-0.462844 0.07902,-0.180622 0.361244,-0.316089 0.282223,-0.146755 0.462845,-0.09031 0.180622,0.04516 0.316089,0.349956 l 1.569155,3.736622 1.557867,-3.646311 q 0.135467,-0.316089 0.3048,-0.417689 0.180622,-0.1016 0.530578,0.06773 0.338666,0.169333 0.349955,0.383822 0.02258,0.2032 -0.1016,0.451556 l -2.054578,4.3688 q -0.07902,0.158044 -0.225777,0.225778 -0.135467,0.07902 -0.361245,0.07902 z m 5.836512,0.04516 q -0.541867,0 -1.049867,-0.2032 -0.508,-0.214488 -0.9144,-0.598311 -0.395111,-0.383822 -0.632178,-0.891822 -0.237066,-0.519289 -0.237066,-1.128889 0,-0.587022 0.214488,-1.095022 0.225778,-0.519289 0.6096,-0.903111 0.395112,-0.395111 0.903112,-0.6096 0.508,-0.225778 1.083733,-0.225778 0.790222,0 1.4224,0.372533 0.632178,0.372534 1.004711,1.016 0.383822,0.632178 0.383822,1.433689 0,0.632178 -0.237066,1.151467 -0.225778,0.519289 -0.620889,0.903111 -0.395111,0.372533 -0.891823,0.575733 -0.496711,0.2032 -1.038577,0.2032 z m -0.02258,-1.151466 q 0.428978,0 0.801511,-0.2032 0.372533,-0.214489 0.598311,-0.598311 0.237067,-0.383823 0.237067,-0.891823 0,-0.496711 -0.214489,-0.869244 -0.2032,-0.372533 -0.575733,-0.575733 -0.372534,-0.214489 -0.857956,-0.214489 -0.451556,0 -0.824089,0.225778 -0.372533,0.214488 -0.587022,0.587022 -0.214489,0.372533 -0.214489,0.857955 0,0.508 0.225778,0.891823 0.237066,0.372533 0.6096,0.587022 0.372533,0.2032 0.801511,0.2032 z m 5.621874,1.083733 q -0.395111,0 -0.699911,-0.05644 -0.293511,-0.05645 -0.519289,-0.191911 -0.225778,-0.135467 -0.372533,-0.361245 -0.135467,-0.225778 -0.2032,-0.541867 Q 40.4527,14.846697 40.4527,14.40643 V 8.8635855 q 0,-0.1806222 0.03387,-0.3048 0.03387,-0.1354667 0.158045,-0.2144889 0.124177,-0.079022 0.383822,-0.079022 0.270933,0 0.395111,0.079022 0.124178,0.067733 0.158044,0.2032 0.04516,0.1241778 0.04516,0.3048 v 5.5315554 q 0,0.214489 0.03387,0.372534 0.03387,0.146755 0.112889,0.248355 0.09031,0.09031 0.225777,0.135467 0.135467,0.04516 0.316089,0.04516 0.135467,0 0.237067,0.03387 0.112889,0.02258 0.180622,0.146756 0.06773,0.124177 0.06773,0.383822 0,0.259644 -0.06773,0.395111 -0.06773,0.124178 -0.180622,0.146755 -0.1016,0.03387 -0.237067,0.03387 z m 3.356398,0.02258 q -0.2032,0 -0.349956,-0.06773 -0.135466,-0.06773 -0.214488,-0.225778 l -2.065867,-4.436534 q -0.146756,-0.293511 -0.07902,-0.462844 0.07902,-0.180622 0.361244,-0.316089 0.282222,-0.146755 0.462845,-0.09031 0.180622,0.04516 0.316088,0.349956 l 1.569156,3.736622 1.557867,-3.646311 q 0.135466,-0.316089 0.3048,-0.417689 0.180622,-0.1016 0.530578,0.06773 0.338666,0.169333 0.349955,0.383822 0.02258,0.2032 -0.1016,0.451556 l -2.054578,4.3688 q -0.07902,0.158044 -0.225778,0.225778 -0.135466,0.07902 -0.361244,0.07902 z m 6.008392,0.04516 q -0.7112,0 -1.253067,-0.225777 -0.530578,-0.237067 -0.903111,-0.632178 -0.361245,-0.4064 -0.553156,-0.9144 -0.18062,-0.519303 -0.18062,-1.083747 0,-0.801512 0.361244,-1.4224 0.372534,-0.620889 1.016,-0.970845 0.643467,-0.361244 1.490134,-0.361244 0.587022,0 1.038578,0.180622 0.451555,0.180622 0.756355,0.485422 0.316089,0.3048 0.474133,0.677333 0.169334,0.361245 0.169334,0.7112 0,0.587023 -0.282222,0.846667 -0.270934,0.248356 -0.677334,0.248356 h -3.115733 q 0,0.440266 0.248355,0.756355 0.259645,0.316089 0.643467,0.496711 0.383822,0.169334 0.790222,0.169334 0.293511,0 0.519289,-0.03387 0.225778,-0.03387 0.383822,-0.09031 0.169334,-0.05645 0.282223,-0.112889 0.124177,-0.05644 0.225777,-0.1016 0.1016,-0.04516 0.191912,-0.06773 0.112888,-0.01129 0.214488,0.04515 0.112889,0.04516 0.180623,0.180622 0.06773,0.1016 0.09031,0.191912 0.03387,0.09031 0.03387,0.180622 0,0.191911 -0.270933,0.383822 -0.270933,0.191911 -0.756355,0.327378 -0.485423,0.135466 -1.1176,0.135466 z m -1.659467,-3.194755 h 2.573867 q 0.191911,0 0.293511,-0.05645 0.112889,-0.06773 0.112889,-0.293511 0,-0.282222 -0.180623,-0.508 Q 52.651,12.103497 52.3462,11.96803 q -0.3048,-0.146756 -0.688622,-0.146756 -0.462845,0 -0.835378,0.180623 -0.372533,0.180622 -0.587022,0.496711 -0.214489,0.3048 -0.214489,0.699911 z m 5.779914,3.127022 q -0.270933,0 -0.395111,-0.07902 -0.124178,-0.07902 -0.169333,-0.214489 -0.03387,-0.135467 -0.03387,-0.3048 V 9.0329188 q 0,-0.1693333 0.03387,-0.3048 0.04516,-0.1354666 0.169333,-0.2032 0.124178,-0.079022 0.4064,-0.079022 0.270933,0 0.383822,0.079022 0.124178,0.067733 0.158045,0.2032 0.04516,0.1354667 0.04516,0.3160889 V 11.572919 L 59.49207,8.6378077 q 0.158044,-0.1693333 0.282222,-0.2257777 0.135467,-0.056444 0.270933,0 0.135467,0.045155 0.293511,0.2032 0.259645,0.2483555 0.248356,0.4289777 0,0.1806223 -0.237067,0.4064 l -3.160889,2.9238223 3.206045,2.9464 q 0.248355,0.237067 0.237067,0.428978 0,0.180622 -0.259645,0.417689 -0.169333,0.158044 -0.3048,0.2032 -0.135467,0.04516 -0.259644,-0.01129 -0.124178,-0.05645 -0.270934,-0.225778 l -3.138311,-2.968978 v 2.573867 q 0,0.169333 -0.04516,0.3048 -0.03387,0.135467 -0.158045,0.2032 -0.124178,0.07902 -0.395111,0.07902 z m 6.357346,0 q -0.259645,0 -0.395111,-0.07902 -0.124178,-0.07902 -0.158045,-0.2032 -0.02258,-0.135467 -0.02258,-0.3048 v -4.334933 q 0,-0.169334 0.03387,-0.3048 0.03387,-0.135467 0.158045,-0.2032 0.124177,-0.07902 0.395111,-0.07902 0.259644,0 0.383822,0.07902 0.124178,0.07902 0.158044,0.214488 0.03387,0.135467 0.03387,0.316089 v 4.323645 q 0,0.169333 -0.03387,0.3048 -0.03387,0.124178 -0.158044,0.191911 -0.124178,0.07902 -0.395111,0.07902 z m 0,-6.7394666 q -0.293511,0 -0.428978,-0.079022 -0.135467,-0.090311 -0.180622,-0.2370667 -0.03387,-0.1580444 -0.03387,-0.3499555 0,-0.1919112 0.03387,-0.3273778 0.04516,-0.1467556 0.180622,-0.2257778 0.146756,-0.079022 0.440267,-0.079022 0.282222,0 0.417689,0.090311 0.135466,0.079022 0.169333,0.2257778 0.04516,0.1467555 0.04516,0.3499555 0,0.1806222 -0.04516,0.3273778 -0.03387,0.1467556 -0.169333,0.2257778 -0.135467,0.079022 -0.428978,0.079022 z m 4.407615,6.7394666 q -0.541866,0 -0.925688,-0.112889 -0.372534,-0.1016 -0.620889,-0.327378 -0.237067,-0.225777 -0.349956,-0.587022 -0.1016,-0.361244 -0.1016,-0.869244 V 9.5409188 q 0,-0.1806222 0.03387,-0.3048 0.03387,-0.1354666 0.158044,-0.2032 0.124178,-0.079022 0.383822,-0.079022 0.259645,0 0.383823,0.079022 0.124177,0.067733 0.158044,0.2032 0.04516,0.1241778 0.04516,0.2935112 v 4.8768 q 0,0.259644 0.04515,0.428978 0.04516,0.158044 0.135467,0.237066 0.1016,0.07902 0.259644,0.112889 0.158045,0.02258 0.395111,0.02258 0.191912,0 0.316089,0.03387 0.135467,0.03387 0.2032,0.146755 0.07902,0.112889 0.07902,0.361245 0,0.270933 -0.09031,0.395111 -0.07902,0.124178 -0.214488,0.146755 -0.124178,0.03387 -0.293512,0.03387 z m -2.528711,-5.396089 1.128889,0.01129 1.557867,-0.03387 q 0.169333,0 0.293511,0.03387 0.135467,0.03387 0.214489,0.158045 0.07902,0.124177 0.07902,0.383822 0,0.259644 -0.07902,0.383822 -0.06773,0.124178 -0.2032,0.169333 -0.124178,0.03387 -0.293511,0.03387 l -1.535289,-0.02258 -1.185333,0.01129 q -0.259645,-0.01129 -0.361245,-0.135467 -0.09031,-0.135466 -0.09031,-0.440266 0,-0.282222 0.112889,-0.417689 0.112889,-0.135467 0.361244,-0.135467 z"
       id="text1"
       aria-label="EvolveKit" />
    <path
       d="m 78.81465,19.757605 q -0.103717,0 -0.188384,-0.0381 -0.08467,-0.0381 -0.143933,-0.105833 -0.05927,-0.06985 -0.09313,-0.162984 -0.03175,-0.09313 -0.03175,-0.205317 0.0021,-0.110066 0.03387,-0.2032 0.03175,-0.09525 0.09102,-0.162984 0.06138,-0.06985 0.143933,-0.10795 0.08467,-0.0381 0.188384,-0.0381 0.09737,0 0.182033,0.0381 0.08678,0.0381 0.150284,0.10795 0.06562,0.06773 0.1016,0.160867 0.03598,0.09102 0.03598,0.201084 0,0.1143 -0.03598,0.20955 -0.03598,0.09313 -0.1016,0.162984 -0.0635,0.06985 -0.150284,0.10795 -0.08467,0.03598 -0.182033,0.03598 z m -0.0254,-0.169333 q 0.09102,0 0.162983,-0.04233 0.07408,-0.04445 0.116417,-0.12065 0.04233,-0.0762 0.04233,-0.1778 0,-0.1016 -0.04233,-0.1778 -0.04233,-0.07832 -0.116417,-0.12065 -0.07197,-0.04445 -0.162983,-0.04445 -0.09102,0 -0.165101,0.04445 -0.07197,0.04233 -0.1143,0.12065 -0.04233,0.0762 -0.04233,0.1778 0,0.1016 0.04233,0.1778 0.04445,0.0762 0.116417,0.12065 0.07197,0.04233 0.162984,0.04233 z m -0.414868,0.17145 q -0.03598,0 -0.05715,-0.01058 -0.01905,-0.01058 -0.0254,-0.02963 -0.0063,-0.02117 -0.0063,-0.0508 v -1.310218 q 0,-0.03175 0.0063,-0.0508 0.0063,-0.02117 0.0254,-0.03175 0.01905,-0.01058 0.05715,-0.01058 0.0381,0 0.05503,0.0127 0.01905,0.01058 0.0254,0.03175 0.0064,0.01905 0.0064,0.04657 v 1.329269 q -0.0042,0.04022 -0.02328,0.05715 -0.01905,0.01693 -0.0635,0.01693 z m 1.241328,0.408517 q -0.04657,-0.02117 -0.05503,-0.04657 -0.0085,-0.0254 0.0127,-0.07197 l 0.563034,-1.265769 q 0.02117,-0.04657 0.04657,-0.05715 0.0254,-0.01058 0.07197,0.0085 0.04657,0.02328 0.05292,0.04868 0.0085,0.0254 -0.0127,0.06985 l -0.565151,1.270002 q -0.01905,0.04868 -0.04445,0.05503 -0.02328,0.0085 -0.06985,-0.01058 z m 0.20955,-0.550334 -0.478367,-0.747184 q -0.02752,-0.04022 -0.02328,-0.06773 0.0063,-0.02752 0.04868,-0.05292 0.04445,-0.02752 0.07197,-0.02117 0.02752,0.0064 0.05292,0.04868 l 0.412751,0.651935 z"
       id="text4"
       style="font-size:2.11667px;font-family:Fredoka;-inkscape-font-specification:'Fredoka, @wght=385,wdth=99.8';font-variation-settings:'wdth' 99.8, 'wght' 385;fill:#ffffff;stroke-miterlimit:10;paint-order:stroke fill markers"
       aria-label="by" />
    <path
       id="rect4"
       style="font-variation-settings:'wdth' 99.8, 'wght' 385;fill:none;stroke:#1a232d;stroke-width:0.6;stroke-miterlimit:10;paint-order:stroke fill markers"
       d="M 0.30153802,0.29762694 H 82.698457 V 24.700419 H 0.30153802 Z" />
    <path
       id="text2"
       style="font-size:25.4px;font-family:Fredoka;-inkscape-font-specification:'Fredoka, @wght=500,wdth=99.8';font-variation-settings:'wdth' 99.8, 'wght' 500;display:inline;fill:#ffffff;stroke-width:0.7;stroke-linejoin:round;stroke-miterlimit:5;paint-order:stroke fill markers"
       d="m 92.462056,90.527808 c -1.100665,0 -2.074602,0.220158 -2.921268,0.660424 -0.829733,0.423333 -1.48182,1.007282 -1.955953,1.752348 -0.474133,0.728133 -0.711068,1.574698 -0.711068,2.539897 0,0.609599 0.06762,1.143219 0.203088,1.600419 0.1524,0.4572 0.355783,0.863447 0.609782,1.219047 0.270933,0.338666 0.584395,0.635352 0.939995,0.889351 0.355599,0.254 0.727778,0.482547 1.117244,0.685747 0.4064,0.186269 0.821552,0.347189 1.244885,0.482659 0.5588,0.22013 1.117584,0.423 1.676384,0.60926 0.575733,0.16934 1.09206,0.36433 1.549259,0.58446 0.4572,0.2032 0.821507,0.45692 1.09244,0.76171 0.287866,0.3048 0.431498,0.68589 0.431498,1.14309 0,0.5588 -0.143632,1.01589 -0.431498,1.37149 -0.270933,0.3556 -0.652016,0.61822 -1.143083,0.78755 -0.491066,0.16933 -1.058238,0.25425 -1.701705,0.25425 -0.524932,0 -1.041776,-0.11008 -1.549776,-0.33022 -0.491066,-0.23706 -0.948159,-0.62653 -1.371492,-1.1684 -0.220133,-0.28787 -0.457068,-0.51693 -0.711068,-0.68626 -0.237066,-0.16934 -0.491294,-0.24535 -0.762227,-0.22841 -0.254,0 -0.533392,0.12685 -0.838192,0.38085 -0.3048,0.27094 -0.51657,0.52516 -0.635103,0.76223 -0.1016,0.22013 -0.126765,0.44868 -0.07597,0.68575 0.06773,0.22013 0.22027,0.49113 0.457337,0.81287 0.1524,0.23706 0.380946,0.51646 0.685746,0.83819 0.321733,0.3048 0.711205,0.60097 1.168404,0.88883 0.474133,0.28787 1.016141,0.51642 1.625741,0.68575 0.626532,0.18627 1.320561,0.27957 2.08256,0.27957 0.761999,0 1.515778,-0.11008 2.260844,-0.33021 0.745066,-0.2032 1.422318,-0.52505 2.031917,-0.96532 0.609599,-0.44027 1.091857,-0.99905 1.447457,-1.67638 0.3556,-0.69427 0.533817,-1.50676 0.533817,-2.4381 0,-0.82973 -0.127372,-1.52427 -0.381372,-2.08307 -0.253999,-0.57574 -0.592625,-1.04961 -1.015958,-1.422139 -0.423333,-0.389467 -0.905591,-0.711316 -1.447457,-0.965316 -0.541866,-0.254 -1.092263,-0.46577 -1.651062,-0.635103 -0.541866,-0.169334 -1.075486,-0.330258 -1.600419,-0.482658 -0.508,-0.169333 -0.973481,-0.338646 -1.396814,-0.50798 -0.423333,-0.186266 -0.761959,-0.414813 -1.015959,-0.685746 -0.254,-0.287866 -0.381372,-0.651657 -0.381372,-1.091923 0,-0.321733 0.05923,-0.61003 0.177767,-0.86403 0.135467,-0.254 0.313684,-0.465253 0.533818,-0.634586 0.237066,-0.186267 0.507553,-0.322027 0.812353,-0.406694 0.3048,-0.08467 0.635038,-0.127124 0.990637,-0.127124 0.4572,0 0.846671,0.04246 1.168404,0.127124 0.338667,0.08467 0.64374,0.220427 0.914673,0.406694 0.270933,0.169333 0.541937,0.389491 0.812871,0.660424 0.406399,0.3048 0.77019,0.440044 1.091923,0.406177 0.338666,-0.0508 0.686197,-0.305028 1.041796,-0.762227 0.3556,-0.440266 0.50762,-0.787281 0.45682,-1.04128 -0.03387,-0.270933 -0.245637,-0.601171 -0.635103,-0.990638 -0.118533,-0.135466 -0.313011,-0.296391 -0.583944,-0.482657 -0.254,-0.2032 -0.584238,-0.397678 -0.990637,-0.583944 -0.389466,-0.2032 -0.863336,-0.364125 -1.422136,-0.482658 -0.541866,-0.135467 -1.151496,-0.203088 -1.828829,-0.203088 z m 28.864384,0 c -1.10066,0 -2.0746,0.220158 -2.92126,0.660424 -0.82974,0.423333 -1.48131,1.007282 -1.95544,1.752348 -0.47413,0.728133 -0.71158,1.574698 -0.71158,2.539897 0,0.609599 0.0681,1.143219 0.2036,1.600419 0.1524,0.4572 0.35527,0.863447 0.60927,1.219047 0.27093,0.338666 0.58439,0.635352 0.93999,0.889351 0.3556,0.254 0.72829,0.482547 1.11776,0.685747 0.4064,0.186269 0.82104,0.347189 1.24437,0.482659 0.5588,0.22013 1.11758,0.423 1.67638,0.60926 0.57574,0.16934 1.09206,0.36433 1.54926,0.58446 0.4572,0.2032 0.82151,0.45692 1.09244,0.76171 0.28787,0.3048 0.4315,0.68589 0.4315,1.14309 0,0.5588 -0.14363,1.01589 -0.4315,1.37149 -0.27093,0.3556 -0.65201,0.61822 -1.14308,0.78755 -0.49107,0.16933 -1.05824,0.25425 -1.70171,0.25425 -0.52493,0 -1.04126,-0.11008 -1.54925,-0.33022 -0.49107,-0.23706 -0.94868,-0.62653 -1.37201,-1.1684 -0.22014,-0.28787 -0.45707,-0.51693 -0.71107,-0.68626 -0.23707,-0.16934 -0.49078,-0.24535 -0.76171,-0.22841 -0.254,0 -0.53339,0.12685 -0.83819,0.38085 -0.3048,0.27094 -0.51657,0.52516 -0.63511,0.76223 -0.1016,0.22013 -0.12728,0.44868 -0.0765,0.68575 0.0677,0.22013 0.22027,0.49113 0.45734,0.81287 0.1524,0.23706 0.38094,0.51646 0.68574,0.83819 0.32174,0.3048 0.71121,0.60097 1.16841,0.88883 0.47413,0.28787 1.01614,0.51642 1.62574,0.68575 0.62653,0.18627 1.32056,0.27957 2.08256,0.27957 0.762,0 1.51578,-0.11008 2.26084,-0.33021 0.74507,-0.2032 1.42232,-0.52505 2.03192,-0.96532 0.6096,-0.44027 1.09237,-0.99905 1.44797,-1.67638 0.3556,-0.69427 0.5333,-1.50676 0.5333,-2.4381 0,-0.82973 -0.12685,-1.52427 -0.38085,-2.08307 -0.254,-0.57574 -0.59314,-1.04961 -1.01648,-1.422139 -0.42333,-0.389467 -0.90559,-0.711316 -1.44745,-0.965316 -0.54187,-0.254 -1.09227,-0.46577 -1.65107,-0.635103 -0.54186,-0.169334 -1.07548,-0.330258 -1.60041,-0.482658 -0.508,-0.169333 -0.97349,-0.338646 -1.39682,-0.50798 -0.42333,-0.186266 -0.76196,-0.414813 -1.01596,-0.685746 -0.254,-0.287866 -0.38085,-0.651657 -0.38085,-1.091923 0,-0.321733 0.0592,-0.61003 0.17776,-0.86403 0.13547,-0.254 0.31317,-0.465253 0.53331,-0.634586 0.23706,-0.186267 0.50807,-0.322027 0.81287,-0.406694 0.3048,-0.08467 0.63503,-0.127124 0.99063,-0.127124 0.4572,0 0.84667,0.04246 1.16841,0.127124 0.33866,0.08467 0.64322,0.220427 0.91415,0.406694 0.27094,0.169333 0.54194,0.389491 0.81287,0.660424 0.4064,0.3048 0.77071,0.440044 1.09244,0.406177 0.33867,-0.0508 0.68568,-0.305028 1.04128,-0.762227 0.3556,-0.440266 0.50762,-0.787281 0.45682,-1.04128 -0.0339,-0.270933 -0.24512,-0.601171 -0.63458,-0.990638 -0.11854,-0.135466 -0.31353,-0.296391 -0.58446,-0.482657 -0.254,-0.2032 -0.58424,-0.397678 -0.99064,-0.583944 -0.38947,-0.2032 -0.86334,-0.364125 -1.42214,-0.482658 -0.54186,-0.135467 -1.15149,-0.203088 -1.82883,-0.203088 z m -92.390222,0.05064 c -1.303865,0 -2.505832,0.220158 -3.606498,0.660424 -1.083732,0.440267 -2.0236,1.058285 -2.819466,1.854151 -0.795866,0.778932 -1.413884,1.702024 -1.85415,2.768823 -0.423333,1.066799 -0.635104,2.243602 -0.635104,3.530534 0,1.3716 0.211771,2.62441 0.635104,3.75895 0.423332,1.13453 1.024574,2.11685 1.803507,2.94659 0.778933,0.8128 1.693119,1.44759 2.742985,1.90479 1.066799,0.44027 2.235214,0.66042 3.505212,0.66042 0.6096,0 1.194066,-0.0419 1.752865,-0.1266 0.558799,-0.0677 1.083515,-0.17782 1.574581,-0.33021 0.507999,-0.1524 0.965093,-0.33062 1.371492,-0.53382 0.592666,-0.28787 1.04976,-0.6092 1.371493,-0.9648 0.338666,-0.37253 0.507979,-0.72845 0.507979,-1.06712 v -5.917988 c 0,-0.287866 -0.03355,-0.542094 -0.101286,-0.762227 -0.06773,-0.237067 -0.203493,-0.431544 -0.406693,-0.583944 -0.2032,-0.1524 -0.532921,-0.228926 -0.990121,-0.228926 h -5.156274 c -0.237066,0 -0.457225,0.02568 -0.660425,0.07648 -0.186266,0.0508 -0.338803,0.177655 -0.457336,0.380855 -0.118533,0.186266 -0.177767,0.49134 -0.177767,0.914673 0,0.423332 0.05084,0.727897 0.152445,0.914157 0.118534,0.18627 0.27107,0.30474 0.457337,0.35554 0.2032,0.0508 0.423358,0.0765 0.660425,0.0765 h 3.581176 v 4.01319 c -0.321733,0.1524 -0.677135,0.27926 -1.066601,0.38085 -0.372533,0.1016 -0.753617,0.17761 -1.143083,0.22841 -0.389466,0.0508 -0.778938,0.0765 -1.168404,0.0765 -1.117599,0 -2.108312,-0.25423 -2.971912,-0.76223 -0.846665,-0.52493 -1.515529,-1.23626 -2.006595,-2.13372 -0.474133,-0.9144 -0.719456,-1.98112 -0.73639,-3.200327 0.01693,-1.168399 0.262257,-2.184277 0.73639,-3.047876 0.474132,-0.863599 1.142996,-1.532463 2.006595,-2.006596 0.8636,-0.491066 1.862701,-0.736389 2.997233,-0.736389 0.440267,0 0.872196,0.04194 1.295529,0.126607 0.440266,0.08467 0.829737,0.194746 1.168404,0.330213 0.355599,0.135466 0.64338,0.279615 0.863513,0.432015 0.287866,0.169333 0.516413,0.304577 0.685746,0.406177 0.186267,0.08467 0.329898,0.127124 0.431498,0.127124 0.2032,0 0.406583,-0.06762 0.609782,-0.203089 0.220133,-0.135466 0.431904,-0.347237 0.635104,-0.635103 0.118533,-0.186267 0.211836,-0.363968 0.279569,-0.533301 0.06773,-0.186266 0.0929,-0.355579 0.07597,-0.507979 0,-0.270933 -0.118468,-0.507868 -0.355534,-0.711068 -0.237067,-0.220133 -0.508071,-0.431904 -0.812871,-0.635103 -0.423333,-0.287867 -0.906107,-0.524802 -1.447973,-0.711068 -0.541866,-0.2032 -1.100651,-0.347348 -1.676384,-0.432015 -0.575732,-0.1016 -1.126129,-0.152445 -1.651062,-0.152445 z m 72.529422,0.01912 c -0.1143,-0.02117 -0.23473,-0.0192 -0.36173,0.0062 -0.23707,0.03387 -0.52485,0.169627 -0.86352,0.406693 -0.474133,0.321734 -0.753522,0.634678 -0.838189,0.939478 -0.06773,0.3048 0.05073,0.669107 0.355534,1.09244 l 5.664255,8.534371 v 5.41 c 0,0.3048 0.0252,0.57581 0.076,0.81287 0.0677,0.23707 0.21189,0.42316 0.43202,0.55862 0.22013,0.1524 0.56715,0.22893 1.04128,0.22893 0.49106,0 0.83808,-0.0765 1.04128,-0.22893 0.22013,-0.13546 0.35589,-0.31316 0.40669,-0.5333 0.0677,-0.23706 0.10129,-0.49916 0.10129,-0.78703 v -5.46116 l 5.63893,-8.559693 c 0.28787,-0.406399 0.40633,-0.762318 0.35553,-1.067118 -0.0508,-0.3048 -0.3129,-0.626649 -0.78703,-0.965316 -0.3556,-0.220133 -0.66067,-0.346988 -0.91467,-0.380855 -0.23707,-0.0508 -0.45723,-0.0083 -0.66043,0.127124 -0.18626,0.118533 -0.38074,0.338692 -0.58394,0.660425 l -4.62297,7.213513 -4.57182,-7.213513 c -0.18626,-0.321733 -0.38126,-0.541892 -0.58446,-0.660425 -0.1016,-0.06773 -0.20971,-0.112159 -0.32401,-0.133325 z M 55.352694,90.80686 c -0.474133,0 -0.830052,0.06814 -1.067119,0.203605 -0.220133,0.135467 -0.363765,0.313168 -0.431498,0.533301 -0.06773,0.220133 -0.101802,0.457068 -0.101802,0.711068 v 14.731916 c 0,0.27093 0.03407,0.52516 0.101802,0.76223 0.06773,0.23707 0.202977,0.42315 0.406177,0.55862 0.220133,0.1524 0.550372,0.22893 0.990637,0.22893 0.474133,0 0.821147,-0.0765 1.04128,-0.22893 0.220133,-0.13547 0.364282,-0.31317 0.432015,-0.5333 0.06773,-0.23707 0.101286,-0.49129 0.101286,-0.76223 V 96.166223 l 8.560201,11.836487 c 0.169333,0.22013 0.363811,0.36428 0.583944,0.43201 0.220133,0.0677 0.516301,0.10181 0.888834,0.10181 0.474133,0 0.821664,-0.0765 1.041797,-0.22893 0.237067,-0.13547 0.389087,-0.31317 0.45682,-0.5333 0.06773,-0.23707 0.101802,-0.49129 0.101802,-0.76223 V 92.381958 c 0,-0.287866 -0.03407,-0.550482 -0.101802,-0.787549 -0.0508,-0.237066 -0.186044,-0.423156 -0.406177,-0.558622 -0.2032,-0.1524 -0.533438,-0.228927 -0.990637,-0.228927 -0.474133,0 -0.821147,0.06814 -1.04128,0.203605 -0.220133,0.135467 -0.364282,0.313168 -0.432015,0.533301 -0.06773,0.220133 -0.101286,0.457068 -0.101286,0.711068 V 103.30377 L 56.927275,91.467285 C 56.757941,91.247152 56.571852,91.086227 56.368652,90.984627 56.182386,90.866094 55.84376,90.80686 55.352694,90.80686 Z m 17.906917,0 c -0.592666,0 -1.007819,0.11008 -1.244885,0.330213 -0.237067,0.220133 -0.355534,0.618509 -0.355534,1.194242 v 14.655435 c 0,0.28787 0.02568,0.55048 0.07648,0.78755 0.06773,0.23707 0.202977,0.42316 0.406177,0.55862 0.220133,0.1524 0.567147,0.22893 1.04128,0.22893 h 9.931693 c 0.287867,0 0.549966,-0.0341 0.787032,-0.1018 0.237067,-0.0508 0.423673,-0.18605 0.559139,-0.40618 0.135467,-0.22013 0.203089,-0.56766 0.203089,-1.0418 0,-0.47413 -0.06762,-0.82114 -0.203089,-1.04128 -0.135466,-0.22013 -0.322072,-0.35537 -0.559139,-0.40617 -0.220133,-0.0677 -0.473844,-0.10181 -0.76171,-0.10181 H 74.732389 V 100.891 h 5.715414 c 0.304799,0 0.566899,-0.0173 0.787032,-0.0512 0.220133,-0.0508 0.389446,-0.16927 0.507979,-0.35553 0.118533,-0.2032 0.178284,-0.516149 0.178284,-0.939482 0,-0.440266 -0.05975,-0.753728 -0.178284,-0.939994 -0.118533,-0.186266 -0.287846,-0.304734 -0.507979,-0.355534 -0.2032,-0.06773 -0.448523,-0.101802 -0.736389,-0.101802 h -5.766057 v -4.266923 h 8.382434 c 0.287867,0 0.549966,-0.02568 0.787032,-0.07648 0.237067,-0.0508 0.423673,-0.186043 0.559139,-0.406176 0.135467,-0.220133 0.203089,-0.567148 0.203089,-1.04128 0,-0.491067 -0.06762,-0.838598 -0.203089,-1.041797 -0.135466,-0.220133 -0.322072,-0.355377 -0.559139,-0.406177 -0.220133,-0.06773 -0.473844,-0.101803 -0.76171,-0.101803 z"
       transform="matrix(0.13477635,0,0,0.13477635,64.145626,8.7769039)" />
    <path
       id="text2-5-9"
       style="font-size:25.4px;font-family:Fredoka;-inkscape-font-specification:'Fredoka, @wght=500,wdth=99.8';font-variation-settings:'wdth' 99.8, 'wght' 500;display:inline;fill:#00ccff;stroke-width:0.7;stroke-linejoin:round;stroke-miterlimit:5;paint-order:stroke fill markers"
       d="m 39.38952,105.47923 c -0.287865,0 -0.541578,0.0341 -0.76171,0.1018 -0.237067,0.0508 -0.423674,0.18605 -0.559139,0.40618 -0.135469,0.2032 -0.203088,0.55073 -0.203088,1.0418 0,0.47413 0.06762,0.82114 0.203088,1.04128 0.135465,0.22013 0.322072,0.35537 0.559139,0.40617 0.237065,0.0508 0.499165,0.0765 0.787032,0.0765 h 1.914612 0.207739 5.855457 0.207739 1.914612 c 0.287866,0 0.549967,-0.0257 0.787032,-0.0765 0.237066,-0.0508 0.423674,-0.18604 0.559139,-0.40617 0.135467,-0.22014 0.203088,-0.56715 0.203088,-1.04128 0,-0.49107 -0.06762,-0.8386 -0.203088,-1.0418 -0.135465,-0.22013 -0.322073,-0.35538 -0.559139,-0.40618 -0.220132,-0.0677 -0.473845,-0.1018 -0.761711,-0.1018 H 47.600389 47.39265 41.537193 41.329454 Z"
       transform="matrix(0.13477635,0,0,0.13477635,64.145626,8.7769039)" />
    <path
       id="text2-5-5-1"
       style="font-size:25.4px;font-family:Fredoka;-inkscape-font-specification:'Fredoka, @wght=500,wdth=99.8';font-variation-settings:'wdth' 99.8, 'wght' 500;display:inline;fill:#00ccff;stroke-width:0.7;stroke-linejoin:round;stroke-miterlimit:5;paint-order:stroke fill markers"
       d="m 39.389521,98.144842 c -0.287866,0 -0.541579,0.0341 -0.761711,0.101803 -0.237067,0.0508 -0.423674,0.186047 -0.559139,0.406177 -0.135469,0.203199 -0.203088,0.550728 -0.203088,1.041797 0,0.474121 0.06762,0.821141 0.203088,1.041271 0.135465,0.22013 0.322072,0.35538 0.559139,0.40618 0.237065,0.0508 0.499166,0.0765 0.787032,0.0765 h 1.914612 0.207739 0.459921 0.807185 1.315166 c 0.287866,0 0.549967,-0.0257 0.787032,-0.0765 0.237066,-0.0508 0.423674,-0.18605 0.559139,-0.40618 0.135467,-0.22013 0.203088,-0.56714 0.203088,-1.041271 0,-0.491069 -0.06762,-0.838597 -0.203088,-1.041797 -0.135465,-0.22013 -0.322073,-0.355378 -0.559139,-0.406177 -0.220132,-0.0677 -0.473845,-0.101803 -0.761711,-0.101803 h -1.340487 -0.807185 -0.459921 -0.207739 z"
       transform="matrix(0.13477635,0,0,0.13477635,64.145626,8.7769039)" />
    <path
       id="text2-5"
       style="font-size:25.4px;font-family:Fredoka;-inkscape-font-specification:'Fredoka, @wght=500,wdth=99.8';font-variation-settings:'wdth' 99.8, 'wght' 500;display:inline;fill:#00ccff;stroke-width:0.7;stroke-linejoin:round;stroke-miterlimit:5;paint-order:stroke fill markers"
       d="m 39.38952,90.81047 c -0.287865,0 -0.541578,0.03407 -0.76171,0.101802 -0.237067,0.0508 -0.423674,0.186044 -0.559139,0.406177 -0.135469,0.203198 -0.203088,0.55073 -0.203088,1.041797 0,0.47413 0.06762,0.821147 0.203088,1.04128 0.135465,0.220132 0.322072,0.355377 0.559139,0.406177 0.237065,0.0508 0.499165,0.07648 0.787032,0.07648 h 1.914612 0.207739 5.855457 0.207739 1.914612 c 0.287866,0 0.549967,-0.02568 0.787032,-0.07648 0.237066,-0.0508 0.423674,-0.186045 0.559139,-0.406177 0.135467,-0.220133 0.203088,-0.56715 0.203088,-1.04128 0,-0.491067 -0.06762,-0.838599 -0.203088,-1.041797 -0.135465,-0.220133 -0.322073,-0.355377 -0.559139,-0.406177 -0.220132,-0.06773 -0.473845,-0.101802 -0.761711,-0.101802 H 47.600389 47.39265 41.537193 41.329454 Z"
       transform="matrix(0.13477635,0,0,0.13477635,64.145626,8.7769039)" />
  </g>
</svg>
